<?xml version="1.0" standalone="no"?>
<!DOCTYPE svg PUBLIC "-//W3C//DTD SVG 20010904//EN"
 "http://www.w3.org/TR/2001/REC-SVG-20010904/DTD/svg10.dtd">
<svg version="1.0" xmlns="http://www.w3.org/2000/svg"
 width="1280.000000pt" height="1280.000000pt" viewBox="0 0 1280.000000 1280.000000"
 preserveAspectRatio="xMidYMid meet">
<metadata>
Created by potrace 1.15, written by Peter Selinger 2001-2017
</metadata>
<g transform="translate(0.000000,1280.000000) scale(0.100000,-0.100000)"
fill="#000000" stroke="none">
<path d="M6495 12275 c-96 -33 -208 -216 -299 -485 -53 -158 -119 -397 -137
-492 -7 -38 -15 -68 -19 -68 -3 0 -12 17 -19 38 -31 87 -128 307 -197 445
-200 403 -375 559 -502 452 -66 -55 -127 -220 -161 -435 -27 -164 -51 -432
-51 -559 0 -55 -3 -101 -7 -100 -5 0 -42 53 -83 117 -41 64 -121 177 -176 252
-366 487 -593 586 -673 293 -50 -185 -36 -482 44 -978 4 -26 -12 -13 -134 106
-289 283 -502 446 -661 506 -307 116 -330 -254 -61 -990 39 -104 54 -156 44
-153 -8 3 -55 35 -106 70 -130 90 -386 242 -492 292 -270 128 -427 143 -487
46 -75 -122 38 -446 316 -909 52 -87 93 -159 92 -161 -2 -1 -41 14 -87 34
-321 138 -636 235 -812 250 -378 30 -349 -230 83 -753 56 -67 142 -166 193
-219 77 -82 87 -96 64 -90 -147 36 -438 83 -639 103 -165 16 -184 16 -287 0
-171 -25 -231 -66 -231 -158 0 -112 112 -265 335 -458 103 -90 269 -221 388
-307 l69 -49 -289 -6 c-391 -9 -577 -35 -728 -104 -287 -130 -101 -367 539
-686 131 -65 245 -119 252 -119 8 0 14 -3 14 -7 0 -5 -66 -21 -148 -37 -508
-99 -842 -230 -907 -357 -19 -36 -19 -92 0 -128 43 -84 234 -194 475 -275 134
-45 374 -113 480 -136 30 -6 62 -14 70 -16 8 -3 -48 -31 -125 -63 -652 -267
-934 -500 -800 -659 54 -65 218 -126 430 -161 152 -25 436 -51 565 -51 55 0
100 -3 99 -7 0 -5 -53 -42 -117 -83 -320 -206 -591 -442 -674 -587 -100 -174
13 -273 327 -289 180 -9 420 13 780 71 27 4 14 -12 -105 -132 -283 -288 -446
-502 -507 -663 -96 -252 133 -315 637 -175 130 36 385 123 504 171 12 5 -9
-34 -58 -105 -105 -154 -238 -376 -297 -496 -132 -273 -149 -436 -51 -497 122
-75 459 43 917 320 83 49 151 89 152 88 1 -1 -23 -63 -53 -137 -443 -1065
-248 -1317 523 -679 67 56 165 142 218 192 74 70 95 85 91 67 -2 -13 -14 -67
-25 -119 -46 -212 -91 -555 -91 -688 0 -82 26 -226 50 -272 29 -57 64 -80 122
-80 151 0 380 209 703 643 l110 148 6 -293 c4 -161 9 -309 12 -328 4 -19 11
-73 18 -120 14 -111 44 -221 80 -291 136 -271 380 -61 704 604 52 107 95 199
95 206 0 6 3 11 8 11 4 0 20 -66 36 -147 99 -509 230 -843 357 -908 36 -19 92
-19 128 0 128 66 283 416 396 895 15 63 29 122 32 130 2 8 29 -46 59 -120 73
-180 207 -453 279 -569 74 -120 181 -234 240 -257 179 -68 288 173 340 744 8
95 15 218 15 272 0 55 3 100 8 99 4 0 41 -52 81 -116 203 -314 468 -617 596
-679 139 -67 211 -24 261 157 15 52 18 101 17 269 0 201 -15 352 -58 615 -8
50 -15 92 -15 95 0 3 66 -60 147 -139 285 -278 515 -452 668 -504 126 -43 204
3 227 135 11 64 -2 262 -22 326 -4 15 -16 61 -25 102 -27 117 -133 442 -190
584 -5 11 34 -10 101 -57 255 -175 534 -328 699 -382 98 -32 204 -37 252 -12
120 63 81 296 -113 673 -60 118 -179 324 -243 424 -14 21 -14 23 -1 18 528
-224 825 -307 1013 -284 283 36 137 397 -385 959 -74 80 -94 107 -77 103 259
-60 650 -116 804 -116 85 0 228 26 275 50 75 38 98 103 69 191 -48 143 -283
376 -653 649 l-129 95 289 6 c180 4 336 12 412 23 652 88 589 355 -173 741
-99 51 -210 105 -247 121 -37 16 -68 31 -68 34 0 3 46 14 103 24 56 10 118 22
137 27 19 5 94 22 165 39 362 84 613 206 658 319 63 155 -198 316 -763 470
-80 21 -172 45 -205 51 -33 7 -64 15 -69 18 -5 2 38 24 95 47 495 200 794 384
854 529 74 177 -167 287 -746 341 -92 8 -212 15 -268 15 -55 0 -101 3 -100 8
0 4 53 41 117 82 153 98 351 246 454 340 217 196 295 334 236 420 -30 44 -83
74 -173 97 -143 37 -507 20 -880 -42 -49 -8 -92 -15 -95 -15 -3 0 58 65 135
144 321 327 511 595 523 740 5 63 -23 111 -83 141 -57 28 -250 26 -390 -5
-193 -42 -486 -134 -688 -215 -11 -5 11 36 56 101 176 256 328 535 382 699 32
98 37 204 12 252 -78 147 -418 51 -950 -268 -83 -50 -156 -94 -161 -97 -5 -3
-7 1 -3 9 208 487 299 806 284 990 -9 106 -40 150 -118 164 -144 26 -487 -189
-853 -537 -53 -49 -96 -88 -96 -86 0 1 9 46 21 98 11 52 26 131 34 175 7 44
16 94 19 110 12 60 46 382 46 435 0 81 -28 236 -50 280 -30 58 -64 80 -124 80
-65 0 -111 -22 -211 -98 -132 -99 -285 -269 -490 -545 l-110 -147 -6 287 c-9
391 -35 577 -104 728 -100 221 -260 162 -485 -177 -76 -114 -320 -583 -320
-614 0 -8 -3 -14 -8 -14 -4 0 -17 53 -30 118 -111 586 -251 920 -402 955 -14
3 -43 -1 -65 -8z"/>
</g>
</svg>
